<svg xmlns="http://www.w3.org/2000/svg" width="86.728" height="60.911" viewBox="0 0 86.728 60.911">
  <path id="Union_2" data-name="Union 2" d="M76.737-157.553a5,5,0,0,1,0-7.07L94.112-182H29a5,5,0,0,1-5-5,5,5,0,0,1,5-5H93.2L76.737-208.464a5,5,0,0,1,0-7.071,5,5,0,0,1,7.071,0l25.4,25.4.055.054a4.985,4.985,0,0,1,1.464,3.536,4.98,4.98,0,0,1-.79,2.7,4.97,4.97,0,0,1-.674.837L83.808-157.553a4.985,4.985,0,0,1-3.536,1.464A4.983,4.983,0,0,1,76.737-157.553Z" transform="translate(-24 217)" fill="#646464"/>
</svg>
